<svg xmlns="http://www.w3.org/2000/svg">
    <symbol id="github" viewBox="0 0 512 512">
        <g>
            <path xmlns="http://www.w3.org/2000/svg"
                d="m256 0c-140.609375 0-256 115.390625-256 256 0 119.988281 84.195312 228.984375 196 256v-84.695312c-11.078125 2.425781-21.273438 2.496093-32.550781-.828126-15.128907-4.464843-27.421875-14.542968-36.546875-29.910156-5.816406-9.8125-16.125-20.453125-26.878906-19.671875l-2.636719-29.882812c23.253906-1.992188 43.371093 14.167969 55.3125 34.230469 5.304687 8.921874 11.410156 14.152343 19.246093 16.464843 7.574219 2.230469 15.707032 1.160157 25.183594-2.1875 2.378906-18.972656 11.070313-26.074219 17.636719-36.074219v-.015624c-66.679687-9.945313-93.253906-45.320313-103.800781-73.242188-13.976563-37.074219-6.476563-83.390625 18.238281-112.660156.480469-.570313 1.347656-2.0625 1.011719-3.105469-11.332032-34.230469 2.476562-62.546875 2.984375-65.550781 13.078125 3.867187 15.203125-3.890625 56.808593 21.386718l7.191407 4.320313c3.007812 1.792969 2.0625.769531 5.070312.542969 17.371094-4.71875 35.683594-7.324219 53.726563-7.558594 18.179687.234375 36.375 2.839844 54.464844 7.75l2.328124.234375c-.203124-.03125.632813-.148437 2.035157-.984375 51.972656-31.480469 50.105469-21.191406 64.042969-25.722656.503906 3.007812 14.128906 31.785156 2.917968 65.582031-1.511718 4.65625 45.058594 47.300781 19.246094 115.753906-10.546875 27.933594-37.117188 63.308594-103.796875 73.253907v.015624c8.546875 13.027344 18.816406 19.957032 18.761719 46.832032v105.722656c111.808594-27.015625 196-136.011719 196-256 .003906-140.609375-115.386719-256-255.996094-256zm0 0"
                fill="currentColor" />
        </g>
    </symbol>

    <symbol id="linkedin" viewBox="0 0 512 512">
        <g>
            <path xmlns="http://www.w3.org/2000/svg"
                d="m256 0c-141.363281 0-256 114.636719-256 256s114.636719 256 256 256 256-114.636719 256-256-114.636719-256-256-256zm-74.390625 387h-62.347656v-187.574219h62.347656zm-31.171875-213.1875h-.40625c-20.921875 0-34.453125-14.402344-34.453125-32.402344 0-18.40625 13.945313-32.410156 35.273437-32.410156 21.328126 0 34.453126 14.003906 34.859376 32.410156 0 18-13.53125 32.402344-35.273438 32.402344zm255.984375 213.1875h-62.339844v-100.347656c0-25.21875-9.027343-42.417969-31.585937-42.417969-17.222656 0-27.480469 11.601563-31.988282 22.800781-1.648437 4.007813-2.050781 9.609375-2.050781 15.214844v104.75h-62.34375s.816407-169.976562 0-187.574219h62.34375v26.558594c8.285157-12.78125 23.109375-30.960937 56.1875-30.960937 41.019531 0 71.777344 26.808593 71.777344 84.421874zm0 0"
                fill="currentColor" />
        </g>
    </symbol>

    <symbol id="down-arrow" viewBox="0 0 451.847 451.847">
        <g xmlns="http://www.w3.org/2000/svg">
            <path
                d="M225.923,354.706c-8.098,0-16.195-3.092-22.369-9.263L9.27,151.157c-12.359-12.359-12.359-32.397,0-44.751   c12.354-12.354,32.388-12.354,44.748,0l171.905,171.915l171.906-171.909c12.359-12.354,32.391-12.354,44.744,0   c12.365,12.354,12.365,32.392,0,44.751L248.292,345.449C242.115,351.621,234.018,354.706,225.923,354.706z"
                fill="currentColor" />
        </g>
    </symbol>

    <symbol id="logo2" viewBox="0 0 235 121">
        <g id="Logo" transform="translate(-254 -62)">
            <text id="Frontend_web_developer" data-name="Frontend web developer" transform="translate(254 176)"
                fill="#707070" font-size="26" font-family="AdobeDevanagari-Regular, Adobe Devanagari">
                <tspan x="0" y="0">Frontend web developer</tspan>
            </text>
            <text id="Méloé" transform="translate(318 144)" fill="#707070" font-size="30"
                font-family="BookAntiqua, Book Antiqua" letter-spacing="0.2em">
                <tspan x="0" y="0">Méloé</tspan>
            </text>
            <text id="Scavezzoni" transform="translate(294 99)" fill="#c74db2" font-size="40"
                font-family="DancingScript-SemiBold, Dancing Script" font-weight="600">
                <tspan x="0" y="0">Scavezzoni</tspan>
            </text>
        </g>
    </symbol>
</svg>