<?xml version="1.0" standalone="no"?>
<!DOCTYPE svg PUBLIC "-//W3C//DTD SVG 20010904//EN"
 "http://www.w3.org/TR/2001/REC-SVG-20010904/DTD/svg10.dtd">
<svg version="1.0" xmlns="http://www.w3.org/2000/svg"
 width="1216.000000pt" height="1216.000000pt" viewBox="0 0 1216.000000 1216.000000"
 preserveAspectRatio="xMidYMid meet">
<metadata>
Created by potrace 1.14, written by Peter Selinger 2001-2017
</metadata>
<g transform="translate(0.000000,1216.000000) scale(0.100000,-0.100000)"
fill="#000000" stroke="none">
<path d="M5798 11995 c-2 -2 -46 -6 -98 -9 -299 -21 -550 -54 -840 -112 -23
-5 -84 -18 -135 -30 -11 -3 -31 -7 -45 -10 -14 -3 -99 -25 -190 -50 -667 -185
-1298 -482 -1855 -873 -114 -80 -379 -283 -400 -307 -5 -6 -57 -51 -115 -100
-131 -111 -412 -392 -546 -544 -436 -497 -761 -1022 -1045 -1685 -102 -239
-258 -732 -295 -935 -3 -14 -11 -50 -19 -80 -13 -51 -47 -234 -60 -326 -4 -21
-8 -51 -11 -65 -2 -15 -6 -44 -9 -65 -2 -22 -7 -59 -10 -84 -7 -52 -13 -112
-20 -190 -2 -30 -8 -95 -12 -145 -15 -179 -7 -778 12 -930 2 -16 7 -56 10 -88
3 -32 7 -74 10 -92 3 -19 7 -52 10 -72 3 -21 8 -55 11 -76 3 -20 7 -47 9 -60
8 -61 43 -251 60 -327 131 -594 347 -1168 627 -1661 30 -52 58 -102 62 -110
17 -35 71 -121 162 -259 252 -382 458 -634 774 -950 152 -152 396 -372 481
-435 15 -11 65 -49 111 -85 45 -36 106 -81 133 -100 28 -19 55 -38 60 -42 60
-50 351 -236 490 -314 38 -21 78 -43 87 -49 127 -73 458 -227 643 -300 66 -25
129 -50 140 -55 32 -13 90 -35 95 -36 3 0 12 -3 20 -7 82 -32 501 -156 580
-171 14 -3 68 -14 120 -26 93 -21 210 -44 280 -54 19 -3 46 -8 60 -11 56 -12
122 -20 311 -40 188 -20 395 -30 624 -29 198 0 470 9 525 18 14 3 59 7 100 11
41 3 91 8 110 11 19 2 53 6 75 9 53 6 104 14 135 20 14 3 41 8 60 11 132 20
454 90 556 120 32 10 64 19 69 20 93 18 561 181 700 244 11 5 55 25 98 44 44
20 81 36 84 36 15 0 340 167 472 243 282 162 575 363 797 546 17 14 42 35 55
45 172 137 528 484 684 666 50 58 96 111 103 119 11 12 55 68 172 220 314 409
604 933 816 1476 90 231 222 679 259 876 3 13 9 44 14 69 12 52 38 197 46 255
3 22 10 65 15 95 5 30 12 82 15 114 3 33 8 73 10 90 5 30 7 57 22 253 4 54 7
229 7 388 0 255 -4 368 -19 520 -2 22 -7 70 -10 107 -3 37 -8 76 -10 87 -2 11
-6 45 -10 76 -15 140 -85 507 -130 680 -140 537 -340 1031 -610 1505 -77 134
-97 168 -214 345 -63 96 -199 288 -233 330 -10 11 -50 61 -90 111 -336 421
-790 844 -1233 1152 -405 281 -758 470 -1240 664 -125 50 -409 150 -465 163
-8 2 -64 17 -125 35 -60 17 -117 33 -125 35 -8 2 -73 17 -145 33 -115 27 -156
35 -280 57 -16 2 -41 7 -55 10 -27 6 -202 30 -290 40 -30 3 -66 8 -80 10 -14
2 -61 7 -105 10 -44 4 -102 8 -130 11 -50 5 -672 13 -677 9z"/>
</g>
</svg>
